<?xml version="1.0" standalone="no"?>
<!DOCTYPE svg PUBLIC "-//W3C//DTD SVG 20010904//EN"
 "http://www.w3.org/TR/2001/REC-SVG-20010904/DTD/svg10.dtd">
<svg version="1.0" xmlns="http://www.w3.org/2000/svg"
 width="300.000000pt" height="321.000000pt" viewBox="0 0 300.000000 321.000000"
 preserveAspectRatio="xMidYMid meet">
<metadata>
Created by potrace 1.10, written by Peter Selinger 2001-2011
</metadata>
<g transform="translate(0.000000,321.000000) scale(0.100000,-0.100000)"
fill="#841d9e" stroke="none">
<path d="M1350 3095 c-8 -2 -49 -9 -90 -15 -353 -57 -713 -302 -887 -605 -106
-183 -148 -356 -140 -570 5 -153 21 -217 81 -340 105 -213 286 -356 506 -401
147 -29 281 -4 400 76 77 52 78 69 3 59 -184 -26 -381 87 -471 270 -36 73 -37
77 -37 191 0 114 1 117 38 192 140 284 494 355 723 145 61 -55 110 -125 126
-179 6 -21 16 -38 22 -38 6 0 45 12 86 26 108 37 248 44 355 16 44 -11 88 -23
98 -27 14 -6 17 -1 17 29 0 46 20 86 60 120 89 74 241 -11 226 -128 -8 -66
-44 -100 -145 -137 -48 -18 -153 -119 -206 -198 -52 -79 -101 -196 -121 -289
-18 -86 -18 -288 0 -372 13 -59 53 -190 61 -198 7 -7 122 60 190 111 105 78
219 199 294 312 446 669 157 1575 -599 1873 -127 51 -247 73 -415 77 -88 2
-167 2 -175 0z"/>
<path d="M1696 1759 c-50 -39 -22 -122 42 -122 66 0 98 78 50 123 -28 26 -58
26 -92 -1z"/>
<path d="M468 490 c-78 -23 -131 -99 -131 -187 0 -154 193 -243 309 -141 45
40 64 77 64 128 l0 41 -97 -3 -98 -3 -3 -37 -3 -38 45 0 c52 0 62 -19 21 -38
-77 -35 -154 13 -155 94 0 84 78 132 154 94 39 -19 39 -19 68 1 35 25 35 33 1
57 -56 38 -117 50 -175 32z"/>
<path d="M2445 488 c-36 -20 -55 -52 -55 -96 0 -55 26 -82 109 -113 35 -12 65
-28 68 -36 16 -41 -71 -59 -107 -23 -19 19 -22 19 -50 5 -36 -19 -38 -34 -7
-62 36 -33 63 -43 115 -43 98 0 157 76 119 156 -13 27 -30 41 -75 60 -83 36
-87 39 -87 60 0 26 50 31 76 8 19 -17 22 -17 47 -2 36 22 34 47 -7 75 -37 25
-111 31 -146 11z"/>
<path d="M875 478 c-2 -7 -31 -87 -65 -177 -33 -91 -60 -169 -60 -173 0 -4 18
-8 41 -8 36 0 41 3 55 35 l14 35 69 0 69 0 12 -35 c11 -33 14 -35 56 -35 l44
0 -36 98 c-20 53 -50 136 -67 185 l-32 87 -48 0 c-29 0 -49 -5 -52 -12z m73
-157 c16 -52 17 -51 -24 -51 -32 0 -35 2 -28 23 25 79 35 85 52 28z"/>
<path d="M1150 305 l0 -185 40 0 39 0 3 108 3 107 44 -72 c24 -40 49 -73 56
-73 7 0 32 33 56 72 l44 73 3 -107 3 -108 39 0 40 0 0 185 0 185 -43 0 c-42 0
-42 0 -90 -80 -27 -44 -52 -78 -57 -75 -5 3 -28 39 -52 80 -43 74 -43 75 -85
75 l-43 0 0 -185z"/>
<path d="M1600 305 l0 -185 115 0 115 0 0 40 0 39 -72 3 -73 3 -3 33 -3 32 70
0 71 0 0 40 0 39 -67 3 -68 3 0 30 0 30 73 3 72 3 0 34 0 35 -115 0 -115 0 0
-185z"/>
<path d="M2030 353 c0 -117 3 -143 19 -169 50 -81 189 -86 250 -8 19 24 21 40
21 170 l0 144 -40 0 -40 0 0 -135 c0 -123 -2 -135 -19 -145 -28 -14 -63 -12
-89 6 -21 14 -22 22 -22 145 l0 129 -40 0 -40 0 0 -137z"/>
</g>
</svg>
