<svg width="800" height="230" xmlns="http://www.w3.org/2000/svg">
 <defs>
  <filter id="_blur">
   <feGaussianBlur stdDeviation="0" in="SourceGraphic"/>
  </filter>
 </defs>
 <g>
  <title>Layer 1</title>
  <g filter="url(#_blur)" stroke="null">
   <metadata stroke="null">Created by potrace 1.10, written by Peter Selinger 2001-2011</metadata>
   <g stroke="null" fill="#841d9e" transform="translate(0 885) scale(0.1 -0.1)">
    <path stroke="null" d="m981.87858,8724.62317c-9.19009,-3.13042 -35.53502,-7.513 -58.20392,-9.39125c-22.66889,-2.50433 -54.52788,-8.76517 -71.68272,-13.77384c-16.54217,-5.00867 -45.95046,-13.14776 -64.33064,-18.78251c-18.38018,-5.63475 -42.27442,-13.77384 -53.30253,-18.78251c-10.41544,-4.38259 -22.05622,-8.13909 -25.11959,-8.13909c-3.67604,0 -14.09147,-3.7565 -23.89424,-8.76517c-21.44355,-11.26951 -93.73894,-45.70411 -105.9924,-50.08669c-4.90138,-2.50433 -16.54217,-8.76517 -25.73226,-15.02601c-9.19009,-5.63475 -33.697,-21.91293 -55.14055,-35.06068c-64.33064,-40.69544 -142.14009,-106.43422 -202.7947,-169.66867c-92.51359,-97.04296 -181.96382,-251.68563 -221.17488,-381.91102c-23.28157,-78.26046 -27.57028,-99.5473 -37.37304,-187.82509c-9.80276,-90.78213 -9.80276,-97.04296 1.83802,-181.56426c6.7394,-48.20844 16.54217,-103.3038 21.44355,-122.08631c8.57742,-32.55635 12.25346,-43.19977 32.47166,-92.0343c4.90138,-10.64342 8.57742,-21.28684 8.57742,-23.16509c0,-7.513 40.43641,-71.37354 74.13341,-116.45156c77.80945,-105.80814 168.48502,-170.92084 305.72373,-219.12928c54.52788,-19.40859 63.71797,-20.66076 143.97811,-21.28684c86.38687,-0.62608 129.27396,6.88692 175.8371,31.30418c8.57742,5.00867 18.99286,8.76517 22.05622,8.76517c10.41544,0 91.28825,58.22578 99.25299,70.74745c6.7394,11.89559 6.12673,11.89559 -19.60553,6.88692c-53.30253,-10.64342 -159.29493,-2.50433 -192.37926,15.02601c-6.7394,3.13042 -25.11959,12.52167 -41.04908,20.66076c-16.54217,8.13909 -37.37304,18.78251 -45.95046,23.79118c-9.19009,5.00867 -39.82373,33.18243 -68.61935,62.60836c-51.46452,53.84319 -80.26014,100.79947 -106.60507,174.67734c-14.70415,40.06935 -13.4788,175.9295 1.83802,224.13794c36.76037,115.82547 113.34447,207.23369 211.98479,252.93779c17.15484,7.513 36.1477,16.90426 42.27442,20.03468c46.56313,25.04335 232.20299,24.41726 256.09723,0c4.28871,-4.38259 11.64078,-7.513 16.54217,-7.513c5.51406,0 22.05622,-6.88692 37.37304,-15.65209c15.31682,-8.13909 33.08433,-17.53034 39.82373,-21.28684c20.2182,-10.01734 85.77419,-76.3822 108.44309,-110.19072c20.2182,-30.6781 41.04908,-70.74745 53.30253,-104.55597c7.35207,-19.40859 14.70415,-21.28684 37.37304,-9.39125c93.73894,50.08669 289.18156,60.10403 395.17396,20.03468c37.37304,-13.77384 45.95046,-11.89559 45.95046,8.13909c0.61267,56.34753 41.66175,112.06897 96.8023,130.2254c33.08433,10.01734 35.53502,10.01734 64.94332,0c43.49977,-16.27817 63.1053,-33.18243 80.26014,-70.12137c18.38018,-39.44327 19.60553,-72.6257 3.67604,-106.43422c-14.09147,-29.42593 -45.95046,-63.23445 -64.33064,-68.24312c-72.29539,-19.40859 -79.03479,-23.79118 -145.81613,-92.0343c-36.76037,-36.93894 -66.16866,-69.49528 -66.16866,-73.25179c0,-3.13042 -4.28871,-10.64342 -9.80276,-15.65209c-15.92949,-16.27817 -72.90806,-136.48623 -86.38687,-182.81642c-29.40829,-98.29513 -34.30968,-133.35582 -34.92235,-243.54654c0,-79.51262 3.06336,-118.32981 11.02811,-153.39049c13.4788,-60.10403 28.18295,-110.81681 38.59839,-135.86015c4.28871,-10.64342 7.96475,-24.41726 7.96475,-30.05201c0,-15.02601 20.83088,-8.76517 65.55599,19.40859c19.60553,11.89559 41.04908,25.04335 47.78848,29.42593c78.42212,48.83452 193.60461,158.39916 257.93525,245.42479c34.92235,46.95627 94.35161,142.74707 94.35161,151.51224c0,2.50433 3.67604,8.76517 7.96475,13.77384c7.35207,8.76517 34.92235,72.6257 56.3659,132.10365c24.50691,66.36487 42.8871,143.37315 55.75323,231.65095c15.92949,115.82547 6.12673,309.28532 -21.44355,410.08479c-14.09147,50.08669 -26.9576,93.91255 -31.85899,106.43422c-28.79562,73.25179 -51.46452,127.09498 -57.59124,134.60798c-3.67604,5.00867 -12.25346,20.66076 -18.99286,34.4346c-64.33064,134.60798 -221.78756,301.77232 -377.40645,400.06745c-86.38687,55.09536 -220.56221,113.32114 -289.18156,125.84281c-12.86613,1.87825 -28.18295,6.26084 -33.697,9.39125c-34.30968,17.53034 -320.42788,32.55635 -363.92765,18.78251z"/>
    <path stroke="null" d="m7563.82253,8132.97413c-44.11244,-10.64342 -74.13341,-21.91293 -86.38687,-31.93027c-4.90138,-5.00867 -12.25346,-8.76517 -15.31682,-8.76517c-11.02811,0 -74.13341,-73.25179 -86.99954,-100.79947c-20.83088,-44.45194 -28.79562,-109.56464 -20.2182,-164.66c4.28871,-25.66943 12.86613,-58.85186 20.2182,-73.25179c13.4788,-29.42593 69.23203,-89.52996 91.90092,-99.5473c7.96475,-3.13042 18.38018,-8.76517 23.28157,-11.89559c19.60553,-11.26951 52.68986,-25.66943 69.23203,-29.42593c9.19009,-1.87825 18.38018,-6.26084 20.2182,-9.39125c1.83802,-3.13042 11.02811,-5.63475 20.2182,-5.63475c9.19009,0 22.05622,-4.38259 28.79562,-9.39125c6.12673,-5.00867 18.99286,-9.39125 27.57028,-9.39125c8.57742,0 20.83088,-4.38259 27.57028,-9.39125c6.12673,-5.00867 17.15484,-9.39125 23.89424,-9.39125c18.99286,0 53.91521,-27.54768 66.78134,-51.33886c11.02811,-20.66076 11.02811,-22.53901 1.22535,-43.82586c-37.37304,-80.76479 -184.41451,-80.76479 -254.87189,-0.62608c-13.4788,15.65209 -24.50691,31.93027 -24.50691,36.93894c0,5.00867 -5.51406,8.76517 -11.64078,8.76517c-11.64078,0 -49.6265,-18.15643 -55.75323,-26.29551c-1.83802,-2.50433 -10.41544,-7.513 -18.38018,-11.26951c-8.57742,-3.13042 -23.28157,-11.89559 -33.697,-18.78251c-9.80276,-6.26084 -25.11959,-15.65209 -33.08433,-20.03468c-26.34493,-14.39992 -28.18295,-25.04335 -12.25346,-58.85186c33.08433,-68.8692 113.95714,-131.47757 210.75945,-162.78175c49.6265,-16.27817 204.02004,-16.27817 232.81567,0c10.41544,5.63475 22.66889,10.01734 28.18295,10.01734c20.2182,0 83.3235,40.06935 113.95714,72.6257c61.26728,63.86053 81.48548,143.99924 61.87995,244.17262c-6.7394,35.06068 -33.08433,87.65171 -53.91521,108.93855c-17.76751,18.15643 -58.20392,48.20844 -88.83756,66.36487c-32.47166,19.40859 -50.23917,26.9216 -113.34447,46.95627c-39.82373,13.14776 -48.40115,16.27817 -109.66843,43.82586c-32.47166,14.39992 -61.87995,46.95627 -61.87995,68.8692c0,5.63475 9.80276,20.03468 21.44355,32.55635c48.40115,50.71278 148.87949,33.80852 189.92857,-32.55635c17.15484,-28.17376 26.9576,-36.31285 33.08433,-26.9216c1.83802,3.7565 11.02811,10.01734 18.99286,13.77384c8.57742,3.13042 23.89424,11.89559 33.697,18.78251c10.41544,6.88692 23.89424,15.02601 30.63364,18.78251c48.40115,25.66943 73.52074,44.45194 75.35876,55.72144c1.22535,7.513 -0.61267,13.14776 -4.28871,13.14776c-3.06336,0 -7.96475,6.26084 -10.41544,13.77384c-1.83802,7.513 -11.64078,22.53901 -21.44355,32.55635c-9.80276,10.64342 -17.76751,21.28684 -17.76751,23.16509c0,5.63475 -59.42926,51.33886 -82.71083,63.86053c-73.52074,40.06935 -170.93571,52.59103 -254.25921,32.55635z"/>
    <path stroke="null" d="m2792.93939,8117.32204c-45.33779,-13.77384 -104.76705,-43.19977 -142.75276,-71.99962c-31.85899,-23.79118 -104.15438,-98.92122 -104.15438,-108.31247c0,-3.13042 -3.67604,-8.76517 -7.96475,-12.52167c-10.41544,-9.39125 -44.11244,-80.13871 -55.14055,-117.07764c-4.90138,-16.90426 -12.86613,-55.72144 -17.15484,-85.77346c-15.31682,-108.93855 18.38018,-243.54654 82.09816,-326.81566c53.30253,-70.12137 105.37972,-115.19939 169.71037,-147.75574c15.31682,-7.513 31.85899,-15.65209 37.37304,-18.78251c5.51406,-3.13042 20.83088,-7.513 33.697,-10.01734c13.4788,-1.87825 27.57028,-6.88692 31.85899,-10.64342c4.90138,-3.7565 44.11244,-6.88692 94.96428,-6.88692c88.22488,-0.62608 113.95714,3.7565 181.96382,31.93027c64.94332,26.9216 119.4712,65.73878 170.32304,120.20806c72.29539,77.63437 104.76705,165.91217 109.66843,296.76365l2.45069,66.99095l-245.06912,0l-245.6818,0l0,-97.04296c0,-73.25179 1.83802,-97.04296 7.96475,-97.66905c3.67604,0 52.68986,-0.62608 108.44309,-1.25217c98.02765,-1.25217 101.09101,-1.87825 102.92903,-14.39992c1.22535,-9.39125 -5.51406,-19.40859 -24.50691,-34.4346c-14.70415,-11.26951 -27.57028,-22.53901 -29.40829,-25.04335c-1.83802,-2.50433 -16.54217,-10.64342 -33.697,-18.78251c-41.66175,-19.40859 -137.85138,-21.28684 -183.18917,-3.13042c-72.90806,28.79985 -143.97811,102.67772 -155.00622,162.15566c-1.83802,11.26951 -6.12673,23.16509 -9.19009,27.54768c-7.96475,10.64342 -7.96475,95.16471 0.61267,103.92989c3.67604,3.7565 6.7394,13.77384 6.7394,21.91293c0,20.66076 36.76037,80.76479 65.55599,107.68639c29.40829,28.17376 60.65461,50.08669 70.45737,50.08669c4.28871,0 13.4788,4.38259 19.60553,9.39125c6.7394,5.00867 20.2182,9.39125 30.02097,9.39125c9.19009,0 23.28157,3.13042 30.02097,6.88692c24.50691,13.14776 132.33733,-13.77384 162.35829,-40.69544c4.28871,-3.7565 12.25346,-10.64342 18.38018,-15.65209c6.12673,-5.00867 18.38018,-16.27817 27.57028,-24.41726l16.54217,-15.65209l26.34493,18.15643c14.70415,10.01734 33.08433,24.41726 41.66175,32.55635c8.57742,7.513 29.40829,24.41726 46.56313,37.56502c50.23917,36.93894 50.85184,40.06935 14.09147,79.51262c-53.30253,57.5997 -126.2106,101.42555 -208.92143,124.59065c-49.6265,14.39992 -196.66797,12.52167 -248.13249,-2.50433z"/>
    <path stroke="null" d="m3768.3145,8124.83504c-3.67604,-2.50433 -11.64078,-21.28684 -17.76751,-41.9476c-6.7394,-20.66076 -15.31682,-43.19977 -18.99286,-50.08669c-4.28871,-6.88692 -8.57742,-19.40859 -10.41544,-28.17376c-2.45069,-8.76517 -9.80276,-31.30418 -17.15484,-50.08669c-7.35207,-18.78251 -15.92949,-44.45194 -19.60553,-56.34753c-3.06336,-11.89559 -8.57742,-24.41726 -11.64078,-27.54768c-3.06336,-3.7565 -5.51406,-10.64342 -5.51406,-15.65209c0,-5.63475 -4.28871,-18.15643 -9.19009,-28.17376c-4.90138,-9.39125 -9.19009,-20.03468 -9.19009,-22.53901c0,-3.13042 -3.06336,-13.14776 -7.35207,-23.16509c-11.02811,-28.17376 -41.66175,-115.82547 -48.40115,-139.61665c-3.67604,-11.89559 -9.19009,-24.41726 -12.25346,-28.17376c-3.06336,-3.13042 -5.51406,-10.01734 -5.51406,-15.65209c0,-5.00867 -3.67604,-16.90426 -8.57742,-26.29551c-4.90138,-9.39125 -10.41544,-25.04335 -12.86613,-35.68677c-2.45069,-10.64342 -6.7394,-20.66076 -9.80276,-22.53901c-3.06336,-2.50433 -5.51406,-8.13909 -5.51406,-13.77384c0,-5.00867 -3.67604,-18.15643 -8.57742,-28.79985c-4.90138,-11.26951 -9.80276,-25.66943 -11.64078,-32.55635c-8.57742,-30.6781 -28.79562,-85.14738 -44.72511,-117.70373c-4.90138,-10.01734 -8.57742,-21.91293 -8.57742,-26.9216c0,-5.00867 -5.51406,-21.91293 -12.25346,-37.56502c-7.35207,-15.02601 -11.02811,-30.6781 -9.19009,-33.80852c2.45069,-3.7565 47.17581,-6.26084 106.60507,-6.26084c91.90092,0 104.15438,1.25217 112.7318,11.26951c6.12673,6.26084 10.41544,16.27817 10.41544,21.91293c0,5.63475 3.67604,19.40859 8.57742,30.6781c4.90138,11.26951 15.31682,36.31285 22.66889,56.34753c11.02811,29.42593 16.54217,35.68677 31.85899,38.81719c29.40829,6.26084 278.15345,4.38259 294.69562,-2.50433c9.80276,-3.7565 17.15484,-13.14776 21.44355,-26.29551c3.06336,-11.26951 11.64078,-36.31285 18.99286,-55.09536c7.35207,-18.78251 14.70415,-41.32152 16.54217,-50.08669c2.45069,-8.76517 6.7394,-17.53034 10.41544,-20.03468c3.67604,-2.50433 54.52788,-5.00867 112.7318,-5.00867c96.18963,0 105.37972,0.62608 105.37972,11.26951c0,5.63475 -4.28871,16.27817 -9.19009,22.53901c-4.90138,6.88692 -9.19009,17.53034 -9.19009,23.79118c0,5.63475 -3.67604,20.03468 -8.57742,31.30418c-4.90138,11.26951 -12.86613,30.6781 -18.38018,43.82586c-5.51406,12.52167 -9.80276,26.9216 -9.80276,31.93027c0,5.63475 -3.67604,17.53034 -8.57742,27.54768c-16.54217,33.80852 -28.18295,65.1127 -28.18295,75.75612c0,5.63475 -4.28871,16.27817 -9.19009,22.53901c-4.90138,6.88692 -9.19009,18.78251 -9.19009,26.29551c0,8.13909 -2.45069,15.65209 -5.51406,18.15643c-3.06336,1.87825 -7.35207,11.89559 -9.80276,22.53901c-2.45069,10.64342 -7.96475,26.29551 -12.86613,35.68677c-4.90138,9.39125 -8.57742,21.28684 -8.57742,26.9216c0,5.00867 -2.45069,11.89559 -5.51406,15.65209c-3.06336,3.13042 -8.57742,15.65209 -11.64078,27.54768c-3.67604,11.89559 -12.25346,37.56502 -19.60553,56.34753c-6.7394,18.78251 -18.38018,51.33886 -25.11959,71.99962c-6.7394,20.66076 -16.54217,45.07802 -21.44355,54.46928c-4.90138,8.76517 -8.57742,21.91293 -8.57742,28.79985c0,7.513 -2.45069,14.39992 -5.51406,16.90426c-3.06336,1.87825 -7.35207,11.89559 -9.80276,22.53901c-2.45069,10.64342 -7.96475,26.29551 -12.86613,35.68677c-4.90138,9.39125 -8.57742,21.91293 -8.57742,27.54768c0,5.63475 -2.45069,11.89559 -5.51406,14.39992c-3.06336,1.87825 -7.35207,11.89559 -9.80276,22.53901c-2.45069,10.64342 -7.96475,26.29551 -12.86613,35.68677c-4.90138,9.39125 -8.57742,22.53901 -8.57742,30.05201c0,6.88692 -4.90138,17.53034 -11.02811,23.16509c-9.80276,8.76517 -26.9576,10.64342 -115.18249,10.64342c-56.97857,0 -106.60507,-2.50433 -109.66843,-5.00867zm119.4712,-333.0765c6.7394,-3.7565 13.4788,-16.27817 15.92949,-29.42593c2.45069,-12.52167 7.96475,-30.05201 12.25346,-38.81719c4.90138,-8.76517 8.57742,-20.03468 8.57742,-24.41726c0,-4.38259 2.45069,-12.52167 6.12673,-18.78251c11.64078,-20.03468 25.73226,-66.99095 26.9576,-85.77346l0.61267,-18.78251l-77.80945,-1.87825l-78.42212,-1.87825l0,23.79118c0,13.14776 4.28871,31.93027 9.19009,41.9476c4.90138,9.39125 9.19009,20.66076 9.19009,25.04335c0,3.7565 3.67604,14.39992 8.57742,23.79118c4.90138,9.39125 10.41544,25.04335 12.86613,35.68677c2.45069,10.64342 6.7394,20.66076 9.80276,22.53901c3.06336,2.50433 5.51406,9.39125 5.51406,16.27817c0,13.14776 10.41544,36.93894 15.92949,36.93894c1.83802,0 8.57742,-3.13042 14.70415,-6.26084z"/>
    <path stroke="null" d="m4399.36749,8116.06987c-1.83802,-8.13909 -2.45069,-212.86844 -1.83802,-455.78889l1.83802,-441.38897l98.02765,0l98.02765,0l3.06336,244.17262c2.45069,189.70334 4.90138,244.17262 11.02811,243.54654c22.05622,-1.87825 25.73226,-3.13042 25.73226,-9.39125c0,-3.7565 42.8871,-79.51262 95.57696,-169.04258c90.67558,-154.64266 96.18963,-162.15566 113.34447,-162.15566c22.66889,0 42.27442,10.01734 42.27442,21.28684c0,4.38259 7.96475,19.40859 17.15484,32.55635c9.80276,13.14776 18.99286,28.79985 21.44355,33.80852c2.45069,5.00867 9.80276,18.15643 16.54217,28.17376c6.7394,10.64342 15.31682,26.29551 18.99286,36.31285c3.67604,9.39125 8.57742,16.90426 11.64078,16.90426c2.45069,0 6.12673,5.00867 8.57742,11.26951c1.83802,5.63475 9.19009,19.40859 15.92949,29.42593c6.7394,10.64342 15.31682,26.29551 18.99286,36.31285c3.67604,9.39125 8.57742,16.90426 11.02811,16.90426c2.45069,0 11.02811,13.14776 18.99286,29.42593c7.96475,15.65209 18.38018,34.4346 23.89424,40.69544c11.02811,13.14776 25.11959,15.02601 25.11959,3.7565c0.61267,-4.38259 1.22535,-115.19939 1.83802,-246.05087l1.22535,-237.91179l98.02765,0l98.02765,0l0,453.91064l0,453.91064l-98.02765,1.25217c-53.91521,1.25217 -101.09101,0 -104.76705,-3.13042c-5.51406,-3.7565 -32.47166,-49.46061 -155.00622,-257.94646c-6.7394,-11.89559 -15.31682,-27.54768 -18.99286,-34.4346c-3.67604,-6.88692 -11.02811,-20.03468 -17.15484,-28.79985c-5.51406,-9.39125 -17.15484,-28.17376 -25.11959,-42.57369c-8.57742,-13.77384 -19.60553,-25.66943 -25.11959,-25.66943c-9.19009,0 -28.79562,22.53901 -38.59839,43.82586c-2.45069,5.00867 -9.80276,18.15643 -16.54217,28.17376c-6.7394,10.64342 -14.70415,24.41726 -18.38018,31.30418c-3.67604,6.88692 -11.64078,21.28684 -18.38018,31.30418c-6.7394,10.64342 -14.70415,24.41726 -17.76751,31.30418c-3.06336,6.88692 -12.86613,23.16509 -21.44355,36.31285c-8.57742,13.14776 -15.92949,25.04335 -15.92949,26.9216c0,2.50433 -7.96475,16.27817 -18.38018,31.93027c-9.80276,15.02601 -18.38018,28.79985 -18.38018,31.30418c0,1.87825 -7.96475,15.65209 -18.38018,31.30418c-9.80276,15.02601 -18.38018,28.79985 -18.38018,30.6781c0,1.87825 -6.12673,11.26951 -13.4788,21.28684l-13.4788,18.78251l-99.86567,0c-98.02765,0 -99.86567,0 -102.92903,-13.77384z"/>
    <path stroke="null" d="m5483.79835,8116.06987c-1.83802,-8.13909 -2.45069,-212.86844 -1.83802,-455.78889l1.83802,-441.38897l278.76613,0l278.76613,0l0,93.91255l0,93.91255l-168.48502,3.13042c-92.51359,1.87825 -173.3864,5.63475 -178.90046,8.76517c-9.80276,4.38259 -11.02811,15.02601 -11.02811,78.88654c0,61.3562 1.83802,74.50395 9.80276,77.63437c5.51406,1.87825 78.42212,3.7565 162.35829,3.7565l153.1682,0l-1.83802,98.92122l-1.83802,98.29513l-153.1682,1.87825c-135.40069,1.25217 -153.78087,2.50433 -160.52028,11.89559c-4.90138,6.26084 -7.96475,31.30418 -7.96475,64.48662c0,33.18243 3.06336,58.22578 7.96475,64.48662c6.7394,9.39125 25.73226,10.64342 172.77373,11.89559l165.42166,1.87825l0,97.04296l0,97.04296l-270.80138,1.87825l-271.41405,1.25217l-3.06336,-13.77384z"/>
    <path stroke="null" d="m6512.47599,8121.07854c-1.83802,-4.38259 -2.45069,-161.52958 -1.22535,-348.72859l1.83802,-340.5895l20.2182,-40.69544c27.57028,-55.09536 53.30253,-87.65171 88.83756,-113.32114c16.54217,-11.89559 33.08433,-24.41726 36.76037,-27.54768c9.80276,-8.13909 33.08433,-18.78251 79.64746,-35.68677c31.85899,-11.26951 51.46452,-13.77384 120.69654,-13.77384c83.3235,0 101.09101,3.7565 163.58364,31.30418c10.41544,5.00867 20.83088,8.76517 23.28157,8.76517c1.83802,0 7.96475,3.7565 12.25346,8.13909c4.28871,3.7565 21.44355,16.90426 37.98571,28.79985c34.30968,24.41726 62.49263,60.73011 89.45023,115.19939l19.60553,38.81719l0,347.47642l0,347.47642l-94.35161,1.87825c-71.68272,1.25217 -95.57696,-0.62608 -99.86567,-6.26084c-2.45069,-4.38259 -4.90138,-147.12966 -4.90138,-316.79832c0,-358.11984 3.06336,-338.71125 -58.20392,-376.90235c-22.05622,-13.77384 -31.24631,-15.65209 -85.77419,-15.65209c-63.71797,0 -82.71083,5.63475 -118.24585,37.56502c-31.24631,27.54768 -31.85899,32.55635 -31.85899,356.86768c0,166.53825 -1.83802,306.78099 -3.67604,312.41574c-3.06336,8.76517 -17.76751,10.01734 -98.02765,10.01734c-74.74608,0 -95.57696,-1.87825 -98.02765,-8.76517z"/>
    <path stroke="null" d="m1284.53894,7551.34242c-15.31682,-16.90426 -18.99286,-49.46061 -7.35207,-70.74745c3.67604,-6.88692 15.92949,-17.53034 27.57028,-23.16509c19.60553,-9.39125 23.89424,-9.39125 39.21106,-1.25217c26.34493,13.77384 33.697,26.9216 33.697,56.97361c0,38.81719 -13.4788,53.21711 -50.85184,53.21711c-22.05622,0 -31.24631,-3.13042 -42.27442,-15.02601z"/>
   </g>
  </g>
 </g>
</svg>